<?xml version="1.0" encoding="UTF-8"?>
<svg width="5001" height="5001" viewBox="0 0 5001 5001" xmlns="http://www.w3.org/2000/svg">
    <g id="Group">
        <g id="g1">
            <path id="Path" fill="#f2edda" stroke="none" d="M 1061.439941 381.855469 L 1908.893799 381.855469 L 2756.347412 381.855469 L 3603.80127 381.855469 L 4112.275879 381.855469 C 4281.770508 381.855469 4451.254883 551.350098 4451.254883 720.834961 L 4451.254883 3263.206543 L 4442.783691 3271.67749 C 4358.041504 3237.782715 4273.289063 3263.206543 4205.499512 3339.477539 L 4036.01416 3508.972168 L 3264.832031 4280.155273 L 213.986237 4280.155273 L 213.986237 720.834961 C 213.986237 551.340332 383.480927 381.855469 552.965759 381.855469 L 722.460449 381.855469 L 1061.439941 381.855469 Z M 1230.934692 720.834961 C 1230.934692 627.611328 1154.663574 551.340332 1061.439941 551.340332 C 968.216309 551.340332 891.945251 627.611328 891.945251 720.834961 C 891.945251 814.058594 968.216309 890.330078 1061.439941 890.330078 C 1154.663574 890.330078 1230.934692 814.058594 1230.934692 720.834961 L 1230.934692 720.834961 Z M 2925.842285 720.834961 C 2925.842285 627.611328 2849.571289 551.340332 2756.347412 551.340332 C 2663.123779 551.340332 2586.852783 627.611328 2586.852783 720.834961 C 2586.852783 814.058594 2663.133789 890.330078 2756.357422 890.330078 C 2849.581055 890.330078 2925.842285 814.058594 2925.842285 720.834961 L 2925.842285 720.834961 Z M 2078.388428 720.834961 C 2078.388428 627.611328 2002.11731 551.340332 1908.893799 551.340332 C 1815.670166 551.340332 1739.398926 627.611328 1739.398926 720.834961 C 1739.398926 814.058594 1815.670166 890.330078 1908.893799 890.330078 C 2002.11731 890.330078 2078.388428 814.058594 2078.388428 720.834961 L 2078.388428 720.834961 Z M 3773.305908 720.834961 C 3773.305908 627.611328 3697.034912 551.340332 3603.811279 551.340332 C 3510.587646 551.340332 3434.316162 627.611328 3434.316162 720.834961 C 3434.316162 814.058594 3510.587646 890.330078 3603.811279 890.330078 C 3697.034912 890.330078 3773.305908 814.058594 3773.305908 720.834961 Z M 3095.336914 4619.144043 L 3095.336914 4958.124023 L 552.965759 4958.124023 C 383.471008 4958.124023 213.986237 4788.628906 213.986237 4619.144043 L 3095.336914 4619.144043 Z M 3264.832031 4280.155273 L 3180.089111 4364.897461 L 3095.336914 4449.649414 L 3095.336914 4619.144043 L 213.986237 4619.144043 L 213.986237 4280.164551 L 3264.832031 4280.164551 Z"/>
            <path id="path1" fill="#ecf4f7" stroke="none" d="M 3688.553711 4873.381348 L 3603.811279 4958.124023 L 3095.336914 4958.124023 L 3095.336914 4619.144043 L 3095.336914 4449.649414 L 3180.079346 4364.907227 L 3434.316162 4619.144043 Z"/>
            <path id="path2" fill="#ff7474" stroke="none" d="M 4290.251465 3763.209473 L 4036.01416 3508.972168 L 3264.832031 4280.155273 L 3180.089111 4364.897461 L 3434.326172 4619.134277 L 3688.563477 4873.371582 L 4544.48877 4017.446533 L 4290.251465 3763.209473 L 4290.251465 3763.209473 Z"/>
            <path id="path3" fill="#ecf4f7" stroke="none" d="M 4713.983398 3508.972168 C 4815.678223 3610.666992 4815.678223 3746.256836 4713.983398 3847.95166 L 4544.48877 4017.446533 L 4290.251465 3763.209473 L 4036.01416 3508.972168 L 4205.509277 3339.477539 C 4273.309082 3271.67749 4366.522461 3246.253906 4451.274902 3271.67749 C 4485.169922 3280.148926 4519.074707 3305.572754 4544.498535 3339.477539 L 4713.983398 3508.972168 Z"/>
        </g>
        <path id="path4" fill="#2f3238" stroke="none" d="M 3603.811523 5000.5 L 3095.336914 5000.5 C 3069.913086 5000.5 3052.960693 4983.547852 3052.960693 4958.124023 L 3052.960693 4449.649414 C 3052.960693 4441.178223 3061.431885 4424.226074 3061.431885 4415.754883 L 4171.604492 3305.58252 C 4230.922852 3246.263672 4298.722656 3220.840088 4366.522949 3220.840088 L 4366.522949 3220.840088 C 4442.793945 3220.840088 4510.59375 3254.734863 4569.912598 3305.58252 L 4739.407227 3475.077148 C 4858.054688 3593.724609 4858.054688 3754.738281 4739.407227 3873.385254 L 3629.235352 4983.547852 C 3629.235352 4992.019043 3612.282715 5000.5 3603.811523 5000.5 Z M 3137.713135 4915.747559 L 3586.868896 4915.747559 L 3629.245117 4873.371582 L 3180.089111 4424.21582 L 3137.713135 4466.591797 Z M 3493.645264 4619.144043 L 3688.563721 4814.0625 L 4485.169922 4017.456299 L 4290.251953 3822.528076 Z M 3239.408203 4364.907227 L 3434.326416 4559.825684 L 4230.932617 3763.219482 L 4036.014404 3568.291016 Z M 4095.333008 3508.972168 L 4544.48877 3958.127686 L 4680.078125 3822.538086 C 4722.45459 3780.161865 4747.878418 3729.314453 4747.878418 3686.948242 C 4747.878418 3636.100586 4722.45459 3585.253418 4680.078125 3542.877197 L 4510.583496 3373.382568 C 4425.841797 3288.639648 4315.665039 3288.639648 4230.922852 3373.382568 Z M 2756.357422 5000.5 L 552.965759 5000.5 C 358.047333 5000.5 171.610062 4814.0625 171.610062 4619.144043 L 171.610062 720.834961 C 171.610062 525.916504 358.047333 339.479492 552.965759 339.479492 L 722.460449 339.479492 C 747.884155 339.479492 764.836609 356.432129 764.836609 381.855957 C 764.836609 407.279785 747.884155 424.231934 722.460449 424.231934 L 552.965759 424.231934 C 408.894745 424.231934 256.352448 576.774414 256.352448 720.845215 L 256.352448 4237.788574 L 2756.347412 4237.788574 C 2781.770996 4237.788574 2798.723633 4254.741211 2798.723633 4280.164551 C 2798.723633 4305.588379 2781.770996 4322.541016 2756.347412 4322.541016 L 256.352448 4322.541016 L 256.352448 4576.777832 L 2756.347412 4576.777832 C 2781.770996 4576.777832 2798.723633 4593.730469 2798.723633 4619.154297 C 2798.723633 4644.578125 2781.770996 4661.530273 2756.347412 4661.530273 L 256.352448 4661.530273 C 281.776154 4797.120117 417.365997 4915.767578 552.965759 4915.767578 L 2756.357422 4915.767578 C 2781.781006 4915.767578 2798.733398 4932.719727 2798.733398 4958.143555 C 2798.723633 4983.547852 2781.781006 5000.5 2756.357422 5000.5 Z M 2925.842285 3644.562256 L 1739.409058 3644.562256 C 1713.985229 3644.562256 1697.032715 3627.609863 1697.032715 3602.185547 C 1697.032715 3576.762207 1713.985229 3559.80957 1739.409058 3559.80957 L 2925.852295 3559.80957 C 2951.276123 3559.80957 2968.228271 3576.762207 2968.228271 3602.185547 C 2968.228271 3627.609863 2951.265869 3644.562256 2925.842285 3644.562256 Z M 1230.934692 3644.562256 L 1061.439941 3644.562256 C 1036.016235 3644.562256 1019.063721 3627.609863 1019.063721 3602.185547 C 1019.063721 3576.762207 1036.016235 3559.80957 1061.439941 3559.80957 L 1230.934692 3559.80957 C 1256.358398 3559.80957 1273.310913 3576.762207 1273.310913 3602.185547 C 1273.310913 3627.609863 1256.358398 3644.562256 1230.934692 3644.562256 Z M 3434.316406 3136.087891 L 1739.409058 3136.087891 C 1713.985229 3136.087891 1697.032715 3119.135254 1697.032715 3093.71167 C 1697.032715 3068.287842 1713.985229 3051.335449 1739.409058 3051.335449 L 3434.326416 3051.335449 C 3459.750244 3051.335449 3476.702637 3068.287842 3476.702637 3093.71167 C 3476.692871 3119.145508 3459.740234 3136.087891 3434.316406 3136.087891 Z M 1230.934692 3136.087891 L 1061.439941 3136.087891 C 1036.016235 3136.087891 1019.063721 3119.135254 1019.063721 3093.71167 C 1019.063721 3068.287842 1036.016235 3051.335449 1061.439941 3051.335449 L 1230.934692 3051.335449 C 1256.358398 3051.335449 1273.310913 3068.287842 1273.310913 3093.71167 C 1273.300903 3119.145508 1256.358398 3136.087891 1230.934692 3136.087891 Z M 4451.265137 2958.121582 C 4425.841797 2958.121582 4408.88916 2941.169189 4408.88916 2915.745605 L 4408.88916 720.834961 C 4408.88916 576.76416 4256.34668 424.222168 4112.275879 424.222168 L 3942.780762 424.222168 C 3917.356934 424.222168 3900.404541 407.269531 3900.404541 381.845703 C 3900.404541 356.421875 3917.356934 339.469727 3942.780762 339.469727 L 4112.275879 339.469727 C 4307.193848 339.469727 4493.631348 525.906738 4493.631348 720.825195 L 4493.631348 2915.73584 C 4493.641602 2941.179199 4476.688965 2958.121582 4451.265137 2958.121582 Z M 3603.811523 2627.613525 L 1739.409058 2627.613525 C 1713.985229 2627.613525 1697.032715 2610.660889 1697.032715 2585.237305 C 1697.032715 2559.813477 1713.985229 2542.861084 1739.409058 2542.861084 L 3603.811523 2542.861084 C 3629.235352 2542.861084 3646.1875 2559.813477 3646.1875 2585.237305 C 3646.1875 2610.671143 3629.235352 2627.613525 3603.811523 2627.613525 Z M 1230.934692 2627.613525 L 1061.439941 2627.613525 C 1036.016235 2627.613525 1019.063721 2610.660889 1019.063721 2585.237305 C 1019.063721 2559.813477 1036.016235 2542.861084 1061.439941 2542.861084 L 1230.934692 2542.861084 C 1256.358398 2542.861084 1273.310913 2559.813477 1273.310913 2585.237305 C 1273.300903 2610.671143 1256.358398 2627.613525 1230.934692 2627.613525 Z M 3264.832031 2119.13916 L 1739.409058 2119.13916 C 1713.985229 2119.13916 1697.032715 2102.187012 1697.032715 2076.762939 C 1697.032715 2051.339355 1713.985229 2034.386719 1739.409058 2034.386719 L 3264.832031 2034.386719 C 3290.255371 2034.386719 3307.207764 2051.339355 3307.207764 2076.762939 C 3307.197998 2102.196777 3290.255371 2119.13916 3264.832031 2119.13916 Z M 1230.934692 2119.13916 L 1061.439941 2119.13916 C 1036.016235 2119.13916 1019.063721 2102.187012 1019.063721 2076.762939 C 1019.063721 2051.339355 1036.016235 2034.386719 1061.439941 2034.386719 L 1230.934692 2034.386719 C 1256.358398 2034.386719 1273.310913 2051.339355 1273.310913 2076.762939 C 1273.300903 2102.196777 1256.358398 2119.13916 1230.934692 2119.13916 Z M 3603.811523 932.706055 C 3485.164063 932.706055 3391.950439 839.482422 3391.950439 720.845215 C 3391.950439 619.150391 3468.221436 534.408203 3561.445313 517.455566 L 3561.445313 42.876465 C 3561.445313 17.452637 3578.397461 0.5 3603.821289 0.5 C 3629.245117 0.5 3646.197754 17.452637 3646.197754 42.876465 L 3646.197754 517.455566 C 3739.421143 534.408203 3815.692383 619.150391 3815.692383 720.845215 C 3815.672363 839.482422 3722.458496 932.706055 3603.811523 932.706055 Z M 3603.811523 593.716797 C 3536.011719 593.716797 3476.692871 653.035156 3476.692871 720.834961 C 3476.692871 788.635254 3536.011719 847.953613 3603.811523 847.953613 C 3671.611084 847.953613 3730.929688 788.635254 3730.929688 720.834961 C 3730.929688 653.04541 3671.611084 593.716797 3603.811523 593.716797 Z M 2756.357422 932.706055 C 2637.710205 932.706055 2544.496338 839.482422 2544.496338 720.845215 C 2544.496338 619.150391 2620.767822 534.408203 2713.991211 517.455566 L 2713.991211 42.876465 C 2713.991211 17.452637 2730.943604 0.5 2756.367188 0.5 C 2781.791016 0.5 2798.743652 17.452637 2798.743652 42.876465 L 2798.743652 517.455566 C 2891.967041 534.408203 2968.238037 619.150391 2968.238037 720.845215 C 2968.218506 839.482422 2874.994873 932.706055 2756.357422 932.706055 Z M 2756.357422 593.716797 C 2688.557617 593.716797 2629.23877 653.035156 2629.23877 720.834961 C 2629.23877 788.635254 2688.557617 847.953613 2756.357422 847.953613 C 2824.157227 847.953613 2883.47583 788.635254 2883.47583 720.834961 C 2883.47583 653.04541 2824.147217 593.716797 2756.357422 593.716797 Z M 1908.893799 932.706055 C 1790.246582 932.706055 1697.032715 839.482422 1697.032715 720.845215 C 1697.032715 619.150391 1773.303833 534.408203 1866.527588 517.455566 L 1866.527588 42.876465 C 1866.527588 17.452637 1883.480103 0.5 1908.903687 0.5 C 1934.327271 0.5 1951.279785 17.452637 1951.279785 42.876465 L 1951.279785 517.455566 C 2044.503418 534.408203 2120.774658 619.150391 2120.774658 720.845215 C 2120.764648 839.482422 2027.541138 932.706055 1908.893799 932.706055 Z M 1908.893799 593.716797 C 1841.093872 593.716797 1781.775024 653.035156 1781.775024 720.834961 C 1781.775024 788.635254 1841.093872 847.953613 1908.893799 847.953613 C 1976.693481 847.953613 2036.012207 788.635254 2036.012207 720.834961 C 2036.012207 653.04541 1976.693481 593.716797 1908.893799 593.716797 Z M 1061.439941 932.706055 C 942.792664 932.706055 849.578918 839.482422 849.578918 720.845215 C 849.578918 619.150391 925.850098 534.408203 1019.07373 517.455566 L 1019.07373 42.876465 C 1019.07373 17.452637 1036.026123 0.5 1061.449951 0.5 C 1086.873657 0.5 1103.826172 17.452637 1103.826172 42.876465 L 1103.826172 517.455566 C 1197.049683 534.408203 1273.320801 619.150391 1273.320801 720.845215 C 1273.300903 839.482422 1180.08728 932.706055 1061.439941 932.706055 Z M 1061.439941 593.716797 C 993.640137 593.716797 934.321411 653.035156 934.321411 720.834961 C 934.321411 788.635254 993.640137 847.953613 1061.439941 847.953613 C 1129.239868 847.953613 1188.558594 788.635254 1188.558594 720.834961 C 1188.558594 653.04541 1129.239868 593.716797 1061.439941 593.716797 Z M 3264.832031 424.231934 L 3095.336914 424.231934 C 3069.913086 424.231934 3052.960693 407.279785 3052.960693 381.855957 C 3052.960693 356.432129 3069.913086 339.479492 3095.336914 339.479492 L 3264.832031 339.479492 C 3290.255371 339.479492 3307.207764 356.432129 3307.207764 381.855957 C 3307.207764 407.279785 3290.255371 424.231934 3264.832031 424.231934 Z M 2417.36792 424.231934 L 2247.873047 424.231934 C 2222.449463 424.231934 2205.49707 407.279785 2205.49707 381.855957 C 2205.49707 356.432129 2222.449463 339.479492 2247.873047 339.479492 L 2417.36792 339.479492 C 2442.791748 339.479492 2459.744141 356.432129 2459.744141 381.855957 C 2459.744141 407.279785 2442.791748 424.231934 2417.36792 424.231934 Z M 1569.914185 424.231934 L 1400.419556 424.231934 C 1374.99585 424.231934 1358.043335 407.279785 1358.043335 381.855957 C 1358.043335 356.432129 1374.99585 339.479492 1400.419556 339.479492 L 1569.914185 339.479492 C 1595.337891 339.479492 1612.290405 356.432129 1612.290405 381.855957 C 1612.290405 407.279785 1595.337891 424.231934 1569.914185 424.231934 Z"/>
        <path id="Note-Keeper" fill="#ff7474" fill-rule="evenodd" stroke="none" d="M 3764.427246 1624.825439 C 3788.056885 1624.825439 3803.190674 1610.2229 3803.190674 1584.468994 L 3803.190674 1458.0896 C 3803.190674 1424.37085 3815.669189 1404.458008 3850.981201 1403.927002 C 3866.114746 1403.661621 3877.265869 1400.209961 3884.699951 1393.837891 C 3892.134033 1387.46582 3895.851074 1378.17334 3895.851074 1365.960205 C 3895.851074 1352.685059 3892.134033 1343.126953 3884.699951 1337.285889 C 3879.124512 1332.506836 3870.893799 1330.117188 3860.539307 1330.117188 C 3832.130371 1330.117188 3808.766113 1351.092041 3801.332031 1386.403809 L 3799.739014 1386.403809 L 3799.739014 1367.818604 C 3799.739014 1343.126953 3784.87085 1328.789795 3763.099609 1328.789795 C 3740.797363 1328.789795 3725.663818 1343.126953 3725.663818 1367.818604 L 3725.663818 1584.468994 C 3725.663818 1610.2229 3741.062988 1624.825439 3764.427246 1624.825439 Z M 3554.679932 1625.356445 C 3609.638916 1625.356445 3653.712402 1604.647217 3672.563232 1569.60083 C 3676.014648 1563.22876 3677.873291 1556.856689 3677.873291 1550.750244 C 3677.873291 1532.961426 3664.33252 1522.341309 3647.605957 1522.341309 C 3637.516846 1522.341309 3630.61377 1525.261963 3622.383057 1533.758057 C 3601.408447 1558.449707 3582.823242 1568.007813 3554.414307 1568.007813 C 3515.119873 1568.007813 3489.631592 1540.395508 3489.631592 1498.180664 L 3489.631592 1494.729004 L 3652.119385 1494.729004 C 3673.625244 1494.729004 3685.838379 1482.515869 3685.838379 1461.010254 C 3685.838379 1383.748779 3631.675781 1328.52417 3550.962891 1328.52417 C 3466.79834 1328.52417 3413.432373 1386.669434 3413.432373 1478.267822 C 3413.432373 1570.397461 3465.736328 1625.356445 3554.679932 1625.356445 Z M 3490.428223 1447.204102 C 3493.083252 1410.830078 3517.774902 1385.872803 3551.759277 1385.872803 C 3585.743652 1385.872803 3609.638916 1410.033691 3611.231934 1447.204102 Z M 3139.964355 1720.672119 C 3162.797607 1720.672119 3178.727783 1706.865967 3178.727783 1680.315674 L 3178.727783 1571.459473 L 3180.320801 1571.459473 C 3195.454346 1603.585205 3227.314697 1623.763428 3268.733154 1623.763428 C 3339.887939 1623.763428 3383.961426 1568.538818 3383.961426 1476.94043 C 3383.961426 1385.076416 3339.622559 1330.117188 3267.405762 1330.117188 C 3226.252686 1330.117188 3194.657959 1350.826416 3179.258789 1384.279785 L 3177.665771 1384.279785 L 3177.665771 1368.880615 C 3177.665771 1342.595947 3161.735596 1328.789795 3139.43335 1328.789795 C 3117.131104 1328.789795 3101.200928 1342.595947 3101.200928 1368.615234 L 3101.200928 1680.315674 C 3101.200928 1706.865967 3117.396484 1720.672119 3139.964355 1720.672119 Z M 3241.386475 1561.370361 C 3203.419434 1561.370361 3178.462158 1528.447998 3178.462158 1476.94043 C 3178.462158 1425.963867 3203.419434 1392.244873 3241.386475 1392.244873 C 3280.149902 1392.244873 3304.576172 1425.432861 3304.576172 1476.94043 C 3304.576172 1528.713379 3280.149902 1561.370361 3241.386475 1561.370361 Z M 2930.217041 1625.356445 C 2985.176025 1625.356445 3029.249512 1604.647217 3048.100342 1569.60083 C 3051.551758 1563.22876 3053.4104 1556.856689 3053.4104 1550.750244 C 3053.4104 1532.961426 3039.869629 1522.341309 3023.143066 1522.341309 C 3013.053955 1522.341309 3006.150879 1525.261963 2997.920166 1533.758057 C 2976.945557 1558.449707 2958.360352 1568.007813 2929.951416 1568.007813 C 2890.656982 1568.007813 2865.168701 1540.395508 2865.168701 1498.180664 L 2865.168701 1494.729004 L 3027.656494 1494.729004 C 3049.162354 1494.729004 3061.375488 1482.515869 3061.375488 1461.010254 C 3061.375488 1383.748779 3007.212891 1328.52417 2926.5 1328.52417 C 2842.335449 1328.52417 2788.969482 1386.669434 2788.969482 1478.267822 C 2788.969482 1570.397461 2841.273438 1625.356445 2930.217041 1625.356445 Z M 2865.965332 1447.204102 C 2868.620361 1410.830078 2893.312012 1385.872803 2927.296387 1385.872803 C 2961.280762 1385.872803 2985.176025 1410.033691 2986.769043 1447.204102 Z M 2628.340088 1625.356445 C 2683.299316 1625.356445 2727.372803 1604.647217 2746.223389 1569.60083 C 2749.675049 1563.22876 2751.533447 1556.856689 2751.533447 1550.750244 C 2751.533447 1532.961426 2737.99292 1522.341309 2721.266113 1522.341309 C 2711.177002 1522.341309 2704.273926 1525.261963 2696.043457 1533.758057 C 2675.068604 1558.449707 2656.483398 1568.007813 2628.074707 1568.007813 C 2588.780273 1568.007813 2563.291992 1540.395508 2563.291992 1498.180664 L 2563.291992 1494.729004 L 2725.779785 1494.729004 C 2747.2854 1494.729004 2759.498535 1482.515869 2759.498535 1461.010254 C 2759.498535 1383.748779 2705.335938 1328.52417 2624.623047 1328.52417 C 2540.45874 1328.52417 2487.092529 1386.669434 2487.092529 1478.267822 C 2487.092529 1570.397461 2539.396729 1625.356445 2628.340088 1625.356445 Z M 2564.088379 1447.204102 C 2566.743408 1410.830078 2591.435303 1385.872803 2625.419678 1385.872803 C 2659.404053 1385.872803 2683.299316 1410.033691 2684.892334 1447.204102 Z M 2203.5354 1624.294434 C 2228.758301 1624.294434 2243.626465 1608.895264 2243.626465 1582.610596 L 2243.626465 1502.163086 L 2281.858887 1462.072266 L 2396.025146 1602.523193 C 2408.503662 1618.453369 2419.654785 1624.560059 2436.115967 1624.560059 C 2458.152832 1624.560059 2474.879395 1607.567871 2474.879395 1585.796631 C 2474.879395 1574.910889 2469.569336 1563.494385 2457.621826 1548.626221 L 2342.658936 1408.97168 L 2448.329102 1298.256836 C 2458.418213 1287.636719 2462.400879 1278.875244 2462.400879 1267.724121 C 2462.400879 1247.014893 2445.939697 1230.819092 2424.699463 1230.819092 C 2411.424316 1230.819092 2401.335205 1235.86377 2390.184082 1248.076904 L 2246.015869 1405.52002 L 2243.626465 1405.52002 L 2243.626465 1272.768555 C 2243.626465 1246.218262 2228.758301 1230.819092 2203.5354 1230.819092 C 2178.312744 1230.819092 2163.44458 1246.218262 2163.44458 1272.768555 L 2163.44458 1582.610596 C 2163.44458 1608.895264 2178.312744 1624.294434 2203.5354 1624.294434 Z M 1878.294434 1625.356445 C 1933.25354 1625.356445 1977.327026 1604.647217 1996.177734 1569.60083 C 1999.629272 1563.22876 2001.487793 1556.856689 2001.487793 1550.750244 C 2001.487793 1532.961426 1987.947144 1522.341309 1971.220459 1522.341309 C 1961.131348 1522.341309 1954.228271 1525.261963 1945.997681 1533.758057 C 1925.022949 1558.449707 1906.437744 1568.007813 1878.028931 1568.007813 C 1838.734497 1568.007813 1813.246216 1540.395508 1813.246216 1498.180664 L 1813.246216 1494.729004 L 1975.734009 1494.729004 C 1997.239746 1494.729004 2009.452881 1482.515869 2009.452881 1461.010254 C 2009.452881 1383.748779 1955.290283 1328.52417 1874.577393 1328.52417 C 1790.412964 1328.52417 1737.046875 1386.669434 1737.046875 1478.267822 C 1737.046875 1570.397461 1789.350952 1625.356445 1878.294434 1625.356445 Z M 1814.042725 1447.204102 C 1816.697754 1410.830078 1841.389526 1385.872803 1875.373901 1385.872803 C 1909.358276 1385.872803 1933.25354 1410.033691 1934.846558 1447.204102 Z M 1578.807129 1546.502197 C 1578.807129 1596.682129 1605.091919 1622.436035 1656.86499 1622.436035 L 1659.52002 1622.436035 C 1692.17688 1622.436035 1714.479126 1610.753906 1714.479126 1587.920654 C 1714.479126 1569.866455 1704.124512 1561.901367 1685.008301 1559.777344 L 1679.963745 1559.246338 C 1663.237061 1557.918701 1656.333984 1549.422607 1656.333984 1529.244385 L 1656.333984 1393.041504 L 1683.680786 1393.041504 C 1702.000488 1393.041504 1713.417114 1381.624756 1713.417114 1363.836182 C 1713.417114 1346.047363 1702.000488 1334.630859 1683.680786 1334.630859 L 1656.333984 1334.630859 L 1656.333984 1303.035889 C 1656.333984 1278.078613 1641.731323 1262.679443 1617.570557 1262.679443 C 1593.40979 1262.679443 1578.807129 1278.078613 1578.807129 1303.035889 L 1578.807129 1334.630859 L 1563.938965 1334.630859 C 1545.619263 1334.630859 1533.937134 1345.781982 1533.937134 1363.836182 C 1533.937134 1381.890381 1545.619263 1393.041504 1563.938965 1393.041504 L 1578.807129 1393.041504 Z M 1377.290405 1625.356445 C 1463.313354 1625.356445 1518.272461 1570.397461 1518.272461 1476.674805 C 1518.272461 1384.279785 1462.516846 1328.52417 1377.290405 1328.52417 C 1292.063965 1328.52417 1236.30835 1384.54541 1236.30835 1476.674805 C 1236.30835 1570.131836 1291.267456 1625.356445 1377.290405 1625.356445 Z M 1377.290405 1566.149414 C 1339.057983 1566.149414 1314.897217 1534.023438 1314.897217 1476.94043 C 1314.897217 1420.388184 1339.588989 1387.731445 1377.290405 1387.731445 C 1414.991821 1387.731445 1439.418091 1420.388184 1439.418091 1476.94043 C 1439.418091 1534.023438 1415.257324 1566.149414 1377.290405 1566.149414 Z M 903.367615 1624.294434 C 927.262878 1624.294434 941.600037 1609.691895 941.600037 1584.203613 L 941.600037 1368.349609 L 943.989563 1368.349609 L 1110.194458 1601.195801 C 1122.407593 1618.187988 1133.02771 1624.294434 1150.2854 1624.294434 C 1175.508179 1624.294434 1189.579834 1610.2229 1189.579834 1585.265625 L 1189.579834 1271.175537 C 1189.579834 1245.421875 1175.508179 1230.819092 1151.347412 1230.819092 C 1127.186646 1230.819092 1112.849487 1245.421875 1112.849487 1271.175537 L 1112.849487 1485.701904 L 1110.725464 1485.701904 L 945.051575 1254.18335 C 932.83844 1237.456787 921.687317 1230.819092 905.226135 1230.819092 C 879.737854 1230.819092 864.86969 1245.421875 864.86969 1270.910156 L 864.86969 1584.203613 C 864.86969 1609.691895 879.206848 1624.294434 903.367615 1624.294434 Z"/>
        <path id="Shape" fill="none" stroke="none" d="M 0 5000.5 L 5000 5000.5 L 5000 0.5 L 0 0.5 Z"/>
    </g>
</svg>
